<svg viewBox="0 0 512 512" xmlns="http://www.w3.org/2000/svg" version="1.1">

    <rect y="110" x="50" width="412" height="50" transform="rotate(-10, 50, 160)" />

    <path d="
        M 50 160
        L 60 160 
        L 100 110
        L 50 110
        M 100 160
        L 140 160 
        L 180 110
        L 140 110
        M 180 160
        L 220 160 
        L 260 110
        L 220 110
        M 260 160
        L 300 160 
        L 340 110
        L 300 110
        M 340 160
        L 380 160 
        L 420 110
        L 380 110
        M 420 160
        L 462 160 
        L 462 110
        L 462 110" fill="#FFF" transform="rotate(-10, 50, 160)" />

    <rect y="160" x="50" width="412" height="240" />

    <path d="M 50 160
        L 60 160 
        L 100 210
        L 50 210
        M 100 160
        L 140 160 
        L 180 210
        L 140 210
        M 180 160
        L 220 160 
        L 260 210
        L 220 210
        M 260 160
        L 300 160 
        L 340 210
        L 300 210
        M 340 160
        L 380 160 
        L 420 210
        L 380 210
        M 420 160
        L 462 160 
        L 462 210
        L 462 210" fill="#FFF" />

    <path d="M 70 230
        L 442 230
        M 70 300 
        L 442 300
        M 70 380 
        L 442 380
        M 70 360 
        L 442 360
        M 180 230 
        L 180 300
        M 332 230 
        L 332 300" stroke="#FFFFFF" stroke-width="2" stroke-linecap="round" />
    <text dx="256" dy="350" color="white" text-anchor="middle" font-family="Nunito Sans" font-size="30" fill="#FFF">
        IMDB View
    </text>


</svg>