<svg viewBox="0 0 512 512" xmlns="http://www.w3.org/2000/svg" version="1.1">

    <rect y="172" x="50" width="412" height="50" transform="rotate(-18, 50, 222)" />

    <path d="
        M 50 222
        L 60 222 
        L 100 172
        L 50 172
        M 100 222
        L 140 222 
        L 180 172
        L 140 172
        M 180 222
        L 220 222 
        L 260 172
        L 220 172
        M 260 222
        L 300 222 
        L 340 172
        L 300 172
        M 340 222
        L 380 222 
        L 420 172
        L 380 172
        M 420 222
        L 462 222 
        L 462 172
        L 462 172" fill="#FFF" transform="rotate(-18, 50, 222)" />

    <rect y="222" x="50" width="412" height="240" />

    <path d="M 50 222
        L 60 222 
        L 100 272
        L 50 272
        M 100 222
        L 140 222 
        L 180 272
        L 140 272
        M 180 222
        L 220 222 
        L 260 272
        L 220 272
        M 260 222
        L 300 222 
        L 340 272
        L 300 272
        M 340 222
        L 380 222 
        L 420 272
        L 380 272
        M 420 222
        L 462 222 
        L 462 272
        L 462 272" fill="#FFF" />

    <path d="M 70 292
        L 442 292
        M 70 362 
        L 442 362
        M 70 442 
        L 442 442
        M 70 422 
        L 442 422
        M 180 292 
        L 180 362
        M 332 292 
        L 332 362" stroke="#FFFFFF" stroke-width="2" stroke-linecap="round" />
    <text dx="256" dy="412" color="white" text-anchor="middle" font-family="Nunito Sans" font-size="30" fill="#FFF">
        IMDB View
    </text>


</svg>